<svg width="228" height="159" viewBox="0 0 228 159" fill="none" xmlns="http://www.w3.org/2000/svg">
<path d="M133.366 84.7472C126.502 84.7472 120.934 89.9072 120.934 96.2696V146.951C120.934 153.314 126.511 158.474 133.375 158.474C140.249 158.474 145.816 153.314 145.816 146.942V96.2696C145.816 89.9072 140.239 84.7472 133.366 84.7472ZM172.487 38.4682C165.613 38.4682 160.046 43.6281 160.046 50V146.601C160.046 152.963 165.632 158.123 172.487 158.123C179.361 158.123 184.928 152.963 184.928 146.601V50C184.928 43.6281 179.361 38.4682 172.487 38.4682ZM94.2633 67.2032C87.3991 67.2032 81.832 72.3632 81.832 78.7351V146.951C81.832 153.314 87.4086 158.474 94.2823 158.474C101.147 158.474 106.714 153.314 106.714 146.942V78.7256C106.714 72.3632 101.137 67.2032 94.2633 67.2032ZM55.161 108.843C48.2873 108.843 42.7107 114.012 42.7107 120.375L42.7202 146.951C42.7202 153.314 48.2873 158.474 55.161 158.474C62.0347 158.474 67.6018 153.314 67.5923 146.942V120.375C67.5923 114.003 62.0347 108.843 55.161 108.843ZM227.439 25.696V112.45C227.439 126.15 215.414 137.294 200.635 137.294H196.053V128.801H200.635C210.359 128.801 218.274 121.464 218.274 112.45V25.696C218.274 16.6825 210.359 9.35439 200.635 9.35439H27.0129C17.2894 9.35439 9.37427 16.6825 9.37427 25.696V112.45C9.37427 121.464 17.2894 128.801 27.0129 128.801H31.5954V137.294H27.0035C12.2336 137.284 0.209351 126.141 0.209351 112.441V25.696C0.209351 12.0054 12.2336 0.8617 27.0035 0.8617H200.645C215.414 0.852232 227.439 11.9959 227.439 25.696Z" fill="#FFC900"/>
</svg>
