<svg width="228" height="172" viewBox="0 0 228 172" fill="none" xmlns="http://www.w3.org/2000/svg">
<path fill-rule="evenodd" clip-rule="evenodd" d="M9.551 171.84C8.11692 171.883 6.69213 171.596 5.38663 171.001C4.08112 170.406 2.92984 169.519 2.02166 168.408C1.11358 167.205 0.488728 165.813 0.19371 164.335C-0.101307 162.857 -0.0588827 161.332 0.317819 159.873L34.3703 11.1194C35.1265 8.03596 36.8669 5.28292 39.3279 3.27722C41.7889 1.27151 44.8365 0.122389 48.0091 0.00387552H217.679C219.113 -0.0373354 220.537 0.250583 221.842 0.845524C223.147 1.44046 224.299 2.3266 225.208 3.4359C226.116 4.63892 226.74 6.03115 227.035 7.50895C227.33 8.98675 227.288 10.5121 226.912 11.9713L192.835 160.733C192.079 163.816 190.339 166.569 187.878 168.575C185.417 170.581 182.369 171.73 179.197 171.848L9.551 171.84Z" fill="url(#paint0_linear_205_14)"/>
<path fill-rule="evenodd" clip-rule="evenodd" d="M48.0093 1.91867H217.679C218.867 1.87005 220.05 2.10826 221.127 2.61316C222.204 3.11806 223.143 3.87481 223.866 4.81943C224.588 5.76404 225.073 6.86876 225.278 8.04017C225.484 9.21158 225.404 10.4153 225.046 11.5494L190.969 160.303C190.298 162.958 188.792 165.326 186.672 167.06C184.552 168.794 181.932 169.801 179.197 169.933H9.55118C8.36288 169.982 7.18033 169.744 6.10353 169.239C5.02672 168.734 4.08731 167.977 3.36473 167.033C2.64214 166.088 2.15761 164.983 1.95212 163.812C1.74662 162.641 1.82619 161.437 2.18411 160.303L36.2609 11.5494C36.9299 8.89779 38.4324 6.53095 40.5474 4.79723C42.6623 3.06351 45.2779 2.05449 48.0093 1.91867Z" fill="url(#paint1_linear_205_14)"/>
<path fill-rule="evenodd" clip-rule="evenodd" d="M113.94 130.907H155.205C157.542 131.006 159.751 132.004 161.37 133.693C162.989 135.382 163.892 137.631 163.892 139.97C163.892 142.309 162.989 144.558 161.37 146.247C159.751 147.936 157.542 148.934 155.205 149.033H113.94C111.603 148.934 109.394 147.936 107.775 146.247C106.156 144.558 105.252 142.309 105.252 139.97C105.252 137.631 106.156 135.382 107.775 133.693C109.394 132.004 111.603 131.006 113.94 130.907Z" fill="#2C5591"/>
<path fill-rule="evenodd" clip-rule="evenodd" d="M140.706 90.6155C139.525 92.602 137.879 94.2724 135.911 95.4836L59.3274 150.453C57.1947 151.84 54.6109 152.355 52.1092 151.893C49.6074 151.431 47.3784 150.027 45.8819 147.969C44.3854 145.912 43.7356 143.358 44.0664 140.836C44.3973 138.313 45.6837 136.014 47.6602 134.412L116.722 84.4006V83.3783L73.3313 37.2448C71.7137 35.2987 70.9 32.8084 71.0565 30.2826C71.2129 27.7568 72.3278 25.386 74.1732 23.6544C76.0187 21.9229 78.4557 20.9612 80.9863 20.9657C83.517 20.9703 85.9504 21.9408 87.7896 23.679L139.862 79.07C141.261 80.6293 142.103 82.6091 142.256 84.6986C142.409 86.7882 141.864 88.8693 140.706 90.6155Z" fill="#2C5591"/>
<path fill-rule="evenodd" clip-rule="evenodd" d="M138.767 88.7009C137.591 90.689 135.948 92.3601 133.98 93.569L57.421 148.546C55.2877 149.904 52.7169 150.398 50.2322 149.927C47.7476 149.456 45.5359 148.056 44.0476 146.011C42.5594 143.966 41.9065 141.431 42.222 138.922C42.5375 136.413 43.7976 134.118 45.7456 132.506L114.816 82.4941V81.4637L71.4249 35.3059C69.792 33.3609 68.9663 30.8643 69.1174 28.3292C69.2686 25.7942 70.3852 23.4134 72.2376 21.6762C74.0901 19.9391 76.5377 18.9776 79.0772 18.9895C81.6167 19.0014 84.0552 19.9857 85.8913 21.7401L137.956 77.1311C139.361 78.6934 140.204 80.6803 140.351 82.7765C140.498 84.8726 139.941 86.9578 138.767 88.7009Z" fill="white"/>
<path fill-rule="evenodd" clip-rule="evenodd" d="M112.804 129.837H154.069C156.348 129.837 158.533 130.742 160.145 132.353C161.756 133.965 162.661 136.15 162.661 138.429C162.661 140.708 161.756 142.893 160.145 144.504C158.533 146.116 156.348 147.021 154.069 147.021H112.804C110.525 147.021 108.34 146.116 106.728 144.504C105.117 142.893 104.212 140.708 104.212 138.429C104.212 136.15 105.117 133.965 106.728 132.353C108.34 130.742 110.525 129.837 112.804 129.837Z" fill="white"/>
<defs>
<linearGradient id="paint0_linear_205_14" x1="173.047" y1="139.013" x2="42.7028" y2="22.5838" gradientUnits="userSpaceOnUse">
<stop stop-color="#5391FE"/>
<stop offset="1" stop-color="#3E6DBF"/>
</linearGradient>
<linearGradient id="paint1_linear_205_14" x1="41.4049" y1="21.0341" x2="170.418" y2="136.976" gradientUnits="userSpaceOnUse">
<stop stop-color="#5391FE"/>
<stop offset="1" stop-color="#3E6DBF"/>
</linearGradient>
</defs>
</svg>
