<svg width="228" height="257" viewBox="0 0 228 257" fill="none" xmlns="http://www.w3.org/2000/svg">
<path d="M227.427 75.9454C227.425 71.6513 226.507 67.8567 224.65 64.6001C222.825 61.3977 220.093 58.7136 216.428 56.5914C186.178 39.1488 155.898 21.7595 125.657 4.29916C117.505 -0.407558 109.6 -0.235968 101.508 4.53832C89.4672 11.6393 29.184 46.1768 11.2204 56.5816C3.82252 60.8642 0.222687 67.4184 0.220908 75.9374C0.209351 111.016 0.220908 146.093 0.209351 181.172C0.211129 185.372 1.09042 189.092 2.86588 192.3C4.69113 195.6 7.46146 198.357 11.2107 200.528C29.1751 210.932 89.4663 245.467 101.504 252.57C109.6 257.347 117.505 257.518 125.66 252.809C155.902 235.348 186.183 217.96 216.438 200.517C220.187 198.348 222.958 195.588 224.783 192.291C226.556 189.084 227.437 185.363 227.439 181.162C227.439 181.162 227.439 111.024 227.427 75.9454Z" fill="#5C8DBC"/>
<path d="M114.172 128.213L2.86584 192.3C4.6911 195.6 7.46143 198.357 11.2106 200.528C29.1751 210.932 89.4662 245.467 101.504 252.57C109.6 257.347 117.505 257.518 125.66 252.809C155.902 235.348 186.183 217.96 216.438 200.517C220.187 198.348 222.958 195.588 224.783 192.291L114.172 128.213Z" fill="#1A4674"/>
<path d="M81.2041 147.196C87.6809 158.503 99.8567 166.13 113.824 166.13C127.877 166.13 140.123 158.406 146.566 146.978L114.172 128.213L81.2041 147.196Z" fill="#1A4674"/>
<path d="M227.427 75.9455C227.425 71.6513 226.507 67.8567 224.65 64.6001L114.172 128.213L224.783 192.291C226.556 189.084 227.437 185.363 227.439 181.162C227.439 181.162 227.439 111.024 227.427 75.9455Z" fill="#1B598E"/>
<path d="M221.345 132.793H212.701V141.439H204.056V132.793H195.414V124.151H204.056V115.507H212.701V124.151H221.345V132.793Z" fill="white"/>
<path d="M189.805 132.793H181.163V141.439H172.519V132.793H163.876V124.151H172.519V115.507H181.163V124.151H189.805V132.793Z" fill="white"/>
<path d="M146.567 146.978C140.123 158.406 127.877 166.13 113.824 166.13C99.8568 166.13 87.681 158.503 81.2041 147.196C78.0577 141.702 76.2485 135.34 76.2485 128.554C76.2485 107.802 93.0723 90.9796 113.824 90.9796C127.701 90.9796 139.813 98.5109 146.322 109.702L179.165 90.7902C166.111 68.2559 141.739 53.0956 113.824 53.0956C72.1481 53.0956 38.3645 86.8801 38.3645 128.554C38.3645 142.226 42.0017 155.047 48.3585 166.107C61.3798 188.76 85.8211 204.014 113.824 204.014C141.878 204.014 166.358 188.699 179.361 165.979L146.567 146.978Z" fill="white"/>
</svg>
